<svg xmlns="http://www.w3.org/2000/svg" xmlns:xlink="http://www.w3.org/1999/xlink" width="500" zoomAndPan="magnify" viewBox="0 0 375 374.999991" height="500" preserveAspectRatio="xMidYMid meet" version="1.0"><defs><g/></defs><g fill="#2563eb" fill-opacity="1"><g transform="translate(38.393958, 335.093167)"><g><path d="M 288.3125 -301.96875 C 286.320312 -270.40625 285.328125 -242.253906 285.328125 -217.515625 C 285.328125 -204.429688 285.753906 -194.195312 286.609375 -186.8125 L 276.796875 -186.8125 C 267.410156 -224.050781 255.328125 -250.914062 240.546875 -267.40625 C 225.765625 -283.90625 209.84375 -292.15625 192.78125 -292.15625 L 192.34375 -292.15625 L 192.34375 -48.1875 C 192.34375 -36.25 193.550781 -27.578125 195.96875 -22.171875 C 198.394531 -16.773438 202.804688 -13.148438 209.203125 -11.296875 C 215.597656 -9.453125 225.757812 -8.53125 239.6875 -8.53125 L 239.6875 0 C 199.601562 -0.851562 168.472656 -1.28125 146.296875 -1.28125 C 126.109375 -1.28125 96.820312 -0.851562 58.4375 0 L 58.4375 -8.53125 C 72.363281 -8.53125 82.523438 -9.453125 88.921875 -11.296875 C 95.316406 -13.148438 99.722656 -16.773438 102.140625 -22.171875 C 104.554688 -27.578125 105.765625 -36.25 105.765625 -48.1875 L 105.765625 -292.15625 L 105.34375 -292.15625 C 88 -292.15625 72.003906 -283.976562 57.359375 -267.625 C 42.722656 -251.28125 30.710938 -224.34375 21.328125 -186.8125 L 11.515625 -186.8125 C 12.367188 -194.195312 12.796875 -204.429688 12.796875 -217.515625 C 12.796875 -242.253906 11.800781 -270.40625 9.8125 -301.96875 C 36.820312 -301.113281 83.3125 -300.6875 149.28125 -300.6875 C 214.957031 -300.6875 261.300781 -301.113281 288.3125 -301.96875 Z M 288.3125 -301.96875 "/></g></g></g></svg>